<svg width="12" height="11" viewBox="0 0 12 11" fill="none" xmlns="http://www.w3.org/2000/svg">
<path d="M11.0021 3.5729L7.95834 3.12915L6.59792 0.370822C6.35417 -0.120844 5.64792 -0.127094 5.40209 0.370822L4.04167 3.12915L0.997921 3.5729C0.452088 3.65207 0.233338 4.32498 0.629171 4.7104L2.83125 6.85623L2.31042 9.88747C2.21667 10.4354 2.79375 10.8458 3.27709 10.5896L6 9.15831L8.72292 10.5896C9.20625 10.8437 9.78334 10.4354 9.68959 9.88747L9.16875 6.85623L11.3708 4.7104C11.7667 4.32498 11.5479 3.65207 11.0021 3.5729ZM8.09584 6.50623L8.58959 9.38956L6 8.02914L3.41042 9.38956L3.90417 6.50623L1.80834 4.46457L4.70417 4.04373L6 1.41874L7.29584 4.04373L10.1917 4.46457L8.09584 6.50623Z" fill="white"/>
</svg>
