<svg width="12" height="11" viewBox="0 0 12 11" fill="none" xmlns="http://www.w3.org/2000/svg">
<path d="M5.4021 0.370822V0.370822C4.5504 2.09771 2.90329 3.29511 0.997937 3.5729V3.5729C0.452103 3.65206 0.233353 4.32498 0.629187 4.71039V4.71039C2.0077 6.05369 2.63638 7.99049 2.31044 9.88746V9.88746C2.21669 10.4354 2.79377 10.8458 3.2771 10.5895V10.5895C4.98181 9.6935 7.01823 9.6935 8.72294 10.5895V10.5895C9.20627 10.8437 9.78335 10.4354 9.6896 9.88746V9.88746C9.36366 7.99049 9.99234 6.05369 11.3709 4.71039V4.71039C11.7667 4.32498 11.5479 3.65206 11.0021 3.5729V3.5729C9.09675 3.29511 7.44964 2.09771 6.59794 0.370822V0.370822C6.35419 -0.120844 5.64794 -0.127094 5.4021 0.370822Z" fill="white"/>
</svg>
